<svg width="40" height="39" viewBox="0 0 40 39" fill="none" xmlns="http://www.w3.org/2000/svg">
<circle cx="20.1391" cy="19.163" r="19.163" fill="#FF671F"/>
<path d="M30.5577 19.6611H9.71913C9.44222 19.6611 9.21851 19.4374 9.21851 19.1605C9.21851 18.8836 9.44222 18.6598 9.71913 18.6598H29.3484L26.3102 15.6217C26.1147 15.4261 26.1147 15.1085 26.3102 14.913C26.5058 14.7174 26.8234 14.7174 27.0189 14.913L30.9129 18.8069C31.0568 18.9508 31.099 19.1652 31.0208 19.3529C30.9426 19.5391 30.7595 19.6611 30.5577 19.6611Z" fill="white"/>
<path d="M26.6589 23.5597C26.5306 23.5597 26.4024 23.5112 26.3054 23.4127C26.1098 23.2171 26.1098 22.8995 26.3054 22.704L30.204 18.8053C30.3995 18.6098 30.7171 18.6098 30.9127 18.8053C31.1082 19.0009 31.1082 19.3185 30.9127 19.514L27.0141 23.4127C26.9155 23.5112 26.7872 23.5597 26.6589 23.5597Z" fill="white"/>
</svg>
