<svg width="40" height="39" viewBox="0 0 40 39" fill="none" xmlns="http://www.w3.org/2000/svg">
<circle cx="19.9999" cy="19.163" r="19.163" fill="white"/>
<path d="M30.4186 19.6611H9.57997C9.30306 19.6611 9.07935 19.4374 9.07935 19.1605C9.07935 18.8836 9.30306 18.6598 9.57997 18.6598H29.2092L26.1711 15.6217C25.9755 15.4261 25.9755 15.1085 26.1711 14.913C26.3666 14.7174 26.6842 14.7174 26.8798 14.913L30.7737 18.8069C30.9176 18.9508 30.9599 19.1652 30.8816 19.3529C30.8034 19.5391 30.6204 19.6611 30.4186 19.6611Z" fill="black"/>
<path d="M26.5198 23.5597C26.3915 23.5597 26.2632 23.5112 26.1662 23.4127C25.9706 23.2171 25.9706 22.8995 26.1662 22.704L30.0648 18.8053C30.2604 18.6098 30.578 18.6098 30.7735 18.8053C30.9691 19.0009 30.9691 19.3185 30.7735 19.514L26.8749 23.4127C26.7763 23.5112 26.6481 23.5597 26.5198 23.5597Z" fill="black"/>
</svg>
